<?xml version="1.0" encoding="UTF-8" standalone="no"?>
<!-- Created with Inkscape (http://www.inkscape.org/) -->

<svg
   width="22.838943mm"
   height="31.945333mm"
   viewBox="0 0 22.838943 31.945333"
   version="1.1"
   id="svg1"
   sodipodi:docname="path8536.svg"
   inkscape:version="1.3.2 (091e20e, 2023-11-25, custom)"
   xmlns:inkscape="http://www.inkscape.org/namespaces/inkscape"
   xmlns:sodipodi="http://sodipodi.sourceforge.net/DTD/sodipodi-0.dtd"
   xmlns="http://www.w3.org/2000/svg"
   xmlns:svg="http://www.w3.org/2000/svg">
  <sodipodi:namedview
     id="namedview1"
     pagecolor="#ffffff"
     bordercolor="#000000"
     borderopacity="0.25"
     inkscape:showpageshadow="2"
     inkscape:pageopacity="0.0"
     inkscape:pagecheckerboard="0"
     inkscape:deskcolor="#d1d1d1"
     inkscape:document-units="mm"
     inkscape:zoom="9.2181716"
     inkscape:cx="52.613471"
     inkscape:cy="56.356078"
     inkscape:window-width="1920"
     inkscape:window-height="1001"
     inkscape:window-x="-9"
     inkscape:window-y="-9"
     inkscape:window-maximized="1"
     inkscape:current-layer="layer1" />
  <defs
     id="defs1">
    <clipPath
       clipPathUnits="userSpaceOnUse"
       id="clipPath8533">
      <path
         d="M 0,850.39 H 850.39 V 0 H 0 Z"
         transform="translate(-558.91329,-448.56261)"
         id="path8533" />
    </clipPath>
    <clipPath
       clipPathUnits="userSpaceOnUse"
       id="clipPath8531">
      <path
         d="M 0,850.39 H 850.39 V 0 H 0 Z"
         transform="translate(-536.70609,-442.31411)"
         id="path8531" />
    </clipPath>
    <clipPath
       clipPathUnits="userSpaceOnUse"
       id="clipPath8535">
      <path
         d="M 0,850.39 H 850.39 V 0 H 0 Z"
         transform="translate(-562.05534,-413.69671)"
         id="path8535" />
    </clipPath>
    <clipPath
       clipPathUnits="userSpaceOnUse"
       id="clipPath8537">
      <path
         d="M 0,850.39 H 850.39 V 0 H 0 Z"
         transform="translate(-584.03341,-410.39891)"
         id="path8537" />
    </clipPath>
    <clipPath
       clipPathUnits="userSpaceOnUse"
       id="clipPath8537-8">
      <path
         d="M 0,850.39 H 850.39 V 0 H 0 Z"
         transform="translate(-584.03341,-410.39891)"
         id="path8537-3" />
    </clipPath>
  </defs>
  <g
     inkscape:label="Capa 1"
     inkscape:groupmode="layer"
     id="layer1"
     transform="translate(-65.087488,-66.410414)">
    <path
       id="path8530"
       d="m 0,0 c 0.432,-0.245 0.874,-0.464 1.318,-0.667 0.968,0.669 1.966,1.32 3.024,1.936 3.758,2.28 7.914,3.787 12.232,4.5 -1.744,3.191 -4.393,6.726 -8.257,8.915 -8.435,4.778 -19.434,1.31 -19.434,1.31 0,0 2.68,-11.216 11.117,-15.994"
       style="fill:#0db14c;fill-opacity:1;fill-rule:nonzero;stroke:none"
       transform="matrix(0.35277776,0,0,-0.35277776,69.009318,76.726164)"
       clip-path="url(#clipPath8531)" />
    <path
       id="path8532"
       d="m 0,0 c 3.203,0 6.304,-0.448 9.248,-1.269 1.514,1.346 2.906,2.943 3.973,4.827 4.782,8.436 1.315,19.435 1.315,19.435 0,0 -11.214,-2.681 -15.992,-11.116 C -3.691,7.934 -4.123,3.434 -3.949,-0.243 -2.643,-0.093 -1.326,0 0,0"
       style="fill:#0db14c;fill-opacity:1;fill-rule:nonzero;stroke:none"
       transform="matrix(0.35277776,0,0,-0.35277776,76.843524,74.521833)"
       clip-path="url(#clipPath8533)" />
    <path
       id="path8534"
       d="m -17.109,16.977 c -0.314,1.174 0.385,2.384 1.559,2.7 1.176,0.314 2.384,-0.383 2.7,-1.559 0.316,-1.176 -0.383,-2.386 -1.559,-2.7 -1.175,-0.316 -2.383,0.383 -2.7,1.559 M 3.633,24.814 C 4.808,25.13 6.018,24.433 6.331,23.257 6.647,22.081 5.948,20.873 4.772,20.557 3.596,20.241 2.39,20.94 2.074,22.116 1.758,23.293 2.457,24.5 3.633,24.814 m -6.775,7.02 c -21.157,0 -24.493,-18.033 -24.493,-24.611 0,-6.578 3.239,-16.68 11.507,-16.68 1.428,0 2.826,0.272 4.148,0.809 l 0.061,0.025 0.062,0.022 c 2.368,0.845 4.687,2.169 6.927,3.448 3.335,1.906 6.215,3.55 9.081,3.55 3.355,0 6.084,-2.82 6.084,-6.288 0,-3.28 -2.453,-5.453 -4.561,-7.195 3.651,1.142 9.361,4.561 13.537,13.03 1.342,3.252 3.843,5.188 6.708,5.188 0.835,0 1.615,-0.185 2.315,-0.491 C 27.068,18.957 13.472,31.834 -3.142,31.834 M -4.0356441,12.038647 c 6.4739995,1.735 13.1249999,-2.1099998 14.8590011,-8.5830012 l -23.440001,-6.2799991 c -1.732998,6.4730016 2.124383,13.1156173 8.5953832,14.8486173"
       style="fill:#ed1a3b;fill-opacity:1;fill-rule:nonzero;stroke:none"
       transform="matrix(0.35277776,0,0,-0.35277776,77.95197,86.821746)"
       clip-path="url(#clipPath8535)"
       sodipodi:nodetypes="ccsccccscccssccccssccscccccc" />
    <path
       id="path8536"
       d="m 0,0 c -7.837,-16.004 -21.791,-17.036 -21.791,-13.88 0,3.153 7.017,5.453 7.017,9.287 0,1.887 -1.5,3.257 -3.054,3.257 -3.673,0 -9.017,-4.695 -14.989,-6.823 -1.634,-0.663 -3.421,-1.032 -5.29,-1.032 -14.61,0 -18.646,22.904 -8.34,35.347 0.089,0.075 0.148,0.184 0.148,0.31 0,0.225 -0.184,0.409 -0.41,0.409 -0.125,0 -0.233,-0.058 -0.308,-0.144 0.002,0.002 0.004,0.005 0.005,0.009 -5.192,-4.304 -11.004,-11.664 -11.383,-24.022 -0.513,-16.675 14.833,-32.115 32.582,-32.115 17.48,0 32.109,17.277 32.109,30.838 C 6.27,3.689 1.962,4.891 0,0"
       style="fill:none;fill-opacity:1;fill-rule:nonzero;stroke:none"
       transform="matrix(0.35277776,0,0,-0.35277776,85.705346,87.985138)"
       clip-path="url(#clipPath8537)"
       inkscape:export-filename="path8536.svg"
       inkscape:export-xdpi="407.0416"
       inkscape:export-ydpi="407.0416" />
    <path
       id="path8536-7"
       d="m 0,0 c -7.837,-16.004 -21.791,-17.036 -21.791,-13.88 0,3.153 7.017,5.453 7.017,9.287 0,1.887 -1.5,3.257 -3.054,3.257 -3.673,0 -9.017,-4.695 -14.989,-6.823 -1.634,-0.663 -3.421,-1.032 -5.29,-1.032 -14.61,0 -18.646,22.904 -8.34,35.347 0.089,0.075 0.148,0.184 0.148,0.31 0,0.225 -0.184,0.409 -0.41,0.409 -0.125,0 -0.233,-0.058 -0.308,-0.144 0.002,0.002 0.004,0.005 0.005,0.009 -5.192,-4.304 -11.004,-11.664 -11.383,-24.022 -0.513,-16.675 14.833,-32.115 32.582,-32.115 17.48,0 32.109,17.277 32.109,30.838 C 6.27,3.689 1.962,4.891 0,0"
       style="fill:#fdb913;fill-opacity:1;fill-rule:nonzero;stroke:none"
       transform="matrix(0.35277776,0,0,-0.35277776,85.708491,87.964031)"
       clip-path="url(#clipPath8537-8)" />
  </g>
</svg>
